<svg xmlns="http://www.w3.org/2000/svg" id="Layer_1" data-name="Layer 1" viewBox="0 0 70 70"><path d="M45.53,52.91c-.23-.05-.47-.01-.67.11l-1.42.89.1-.13c-1.98,1.07-4.1,1.88-6.3,2.39-.41.09-.69.45-.69.87v2.62c0,.82-.67,1.49-1.5,1.49h-7.16c-.82,0-1.5-.67-1.5-1.49v-2.62c0-.42-.28-.77-.69-.87-2.7-.63-5.26-1.69-7.62-3.16-.36-.22-.81-.17-1.1.13l-1.85,1.85c-.56.56-1.55.56-2.11,0l-5.07-5.07c-.28-.28-.44-.66-.44-1.06s.16-.77.44-1.06l1.85-1.85c.3-.29.35-.75.13-1.1-1.47-2.36-2.53-4.92-3.16-7.63-.09-.41-.45-.69-.87-.69h-2.62c-.82,0-1.49-.67-1.49-1.49v-7.16c0-.82.67-1.5,1.49-1.5h2.62c.42,0,.77-.28.87-.69.62-2.7,1.69-5.26,3.16-7.62.22-.35.17-.81-.13-1.1l-1.85-1.85c-.28-.28-.44-.66-.44-1.06s.16-.78.44-1.06l5.07-5.07c.56-.57,1.55-.57,2.11,0l1.85,1.85c.3.29.75.35,1.1.13,2.35-1.47,4.92-2.53,7.62-3.16.4-.1.69-.45.69-.87v-2.62c0-.82.67-1.5,1.5-1.5h7.16c.82,0,1.5.67,1.5,1.5v2.62c0,.42.28.77.69.87,2.71.63,5.27,1.69,7.62,3.16.35.22.81.17,1.1-.13l1.85-1.85c.56-.57,1.55-.57,2.12,0l5.07,5.07c.28.28.44.66.44,1.06s-.16.77-.44,1.06l-1.85,1.85c-.3.29-.35.75-.13,1.1,1.47,2.36,2.53,4.92,3.16,7.63.09.4.46.69.87.69h2.62c.57,0,1.09.32,1.34.83.22.44.76.62,1.2.4.21-.1.37-.29.45-.51.08-.23.06-.47-.05-.68-.56-1.13-1.68-1.83-2.94-1.83h-1.92l-.06-.21c-.6-2.26-1.51-4.43-2.68-6.47l-.11-.19,1.36-1.35c.62-.62.96-1.44.96-2.32s-.34-1.7-.96-2.32l-5.07-5.07c-.62-.62-1.44-.96-2.32-.96s-1.7.34-2.32.96l-1.35,1.35-.19-.11c-2.01-1.16-4.19-2.07-6.47-2.68l-.21-.06v-1.92c0-1.81-1.47-3.28-3.28-3.28h-7.16c-1.81,0-3.28,1.47-3.28,3.28v1.92l-.21.06c-2.26.6-4.44,1.51-6.47,2.68l-.19.11-1.35-1.35c-.62-.62-1.44-.96-2.32-.96s-1.7.34-2.32.96l-5.07,5.07c-.62.62-.96,1.44-.96,2.32s.34,1.7.96,2.32l1.35,1.35-.11.19c-1.16,2.02-2.07,4.2-2.68,6.47l-.06.21h-1.92c-1.81,0-3.28,1.47-3.28,3.28v7.16c0,1.81,1.47,3.28,3.28,3.28h1.92l.06.21c.6,2.26,1.51,4.44,2.68,6.47l.11.19-1.35,1.35c-.62.62-.96,1.44-.96,2.32s.34,1.7.96,2.32l5.07,5.07c1.28,1.28,3.36,1.28,4.64,0l1.35-1.35.19.11c2.02,1.17,4.2,2.07,6.47,2.68l.21.06v1.92c0,1.81,1.47,3.28,3.28,3.28h7.16c1.81,0,3.28-1.47,3.28-3.28v-1.92l.21-.06c2.56-.69,5.01-1.75,7.26-3.16.2-.13.34-.32.4-.56.05-.23.01-.47-.11-.67-.13-.2-.32-.34-.56-.4h0Z"></path><path d="M50.57,28.19c.18.12.4.17.61.14h.06c.23-.06.43-.2.57-.39.13-.2.18-.44.13-.67-1.98-9.66-10.58-16.68-20.46-16.68-11.52,0-20.88,9.37-20.88,20.89s9.37,20.89,20.88,20.89c3.88,0,7.66-1.07,10.94-3.09.42-.26.55-.81.29-1.23-.26-.42-.81-.55-1.23-.29-3,1.85-6.46,2.82-10,2.82-10.53,0-19.1-8.57-19.1-19.1,0-5.09,1.99-9.89,5.6-13.5,3.61-3.61,8.4-5.6,13.5-5.6,9.03,0,16.9,6.41,18.71,15.25.05.23.19.44.39.57h0Z"></path><path d="M44.69,31.2c0,.24.1.46.28.63.17.16.38.23.63.24.24,0,.46-.1.63-.27.17-.17.26-.4.25-.64-.17-8.1-6.9-14.7-15-14.7s-15,6.73-15,15,6.73,15.01,15,15.01c3.71,0,7.26-1.37,10.02-3.85.37-.33.39-.9.07-1.26-.33-.36-.9-.4-1.26-.07-2.43,2.19-5.57,3.39-8.83,3.39-7.29,0-13.22-5.93-13.22-13.22s5.93-13.22,13.22-13.22,13.07,5.81,13.22,12.95Z"></path><path d="M65.78,33.26c-2.67-2.39-6.27-3.54-9.88-3.15-5.81.64-10.49,5.33-11.13,11.14-.38,3.4.59,6.73,2.72,9.36,1.45,1.8,2.35,3.83,2.59,5.89l.04.32h-2.07c-.49,0-.89.4-.89.89s.4.89.89.89h18.58c.49,0,.89-.4.89-.89s-.4-.89-.89-.89h-.68,0s-1.39,0-1.39,0l.03-.31c.22-2.13,1.04-4.07,2.36-5.61,1.96-2.29,3.05-5.21,3.05-8.22,0-3.59-1.54-7.03-4.22-9.43h0ZM65.6,49.74c-1.62,1.88-2.59,4.24-2.81,6.83l-.02.26h-4.53v-9.88l.23-.05c2.63-.53,4.53-2.86,4.53-5.54,0-.49-.4-.89-.89-.89s-.89.4-.89.89c0,2.13-1.73,3.87-3.87,3.87s-3.86-1.73-3.86-3.87c0-.49-.4-.89-.89-.89s-.89.4-.89.89c0,2.68,1.9,5.01,4.53,5.54l.23.05v9.88h-4.54l-.02-.26c-.23-2.48-1.27-4.93-3.01-7.08l-.1-.13h0c-1.76-2.25-2.55-5.05-2.23-7.92.55-4.99,4.57-9.01,9.56-9.56,3.14-.35,6.15.61,8.49,2.7,2.3,2.06,3.62,5.01,3.62,8.1,0,2.59-.93,5.09-2.62,7.05Z"></path><path d="M66.63,61.99h-7.19c-.49,0-.89.4-.89.89s.4.89.89.89h3.22l-.08.35c-.58,2.4-2.7,4.08-5.16,4.08h-.15c-2.46,0-4.59-1.68-5.16-4.08l-.08-.35h2.29c.49,0,.89-.4.89-.89s-.4-.89-.89-.89h-6.26c-.49,0-.89.4-.89.89s.4.89.89.89h2.16l.04.24c.56,3.47,3.51,5.98,7.01,5.98h.15c3.5,0,6.45-2.51,7.01-5.98l.04-.24h2.16c.49,0,.89-.4.89-.89s-.4-.89-.89-.89Z"></path></svg>