<?xml version="1.0" encoding="UTF-8"?>
<svg xmlns="http://www.w3.org/2000/svg" id="Layer_1" data-name="Layer 1" viewBox="0 0 24 24">
  <path d="M10.678,12.555c-2.005,3.169-4.079,6.445-10.178,6.445-.276,0-.5-.224-.5-.5s.224-.5,.5-.5c5.44,0,7.314-2.794,9.219-5.801-.188-.281-.371-.561-.553-.839-1.879-2.876-3.501-5.359-8.666-5.359-.276,0-.5-.224-.5-.5s.224-.5,.5-.5c5.706,0,7.551,2.823,9.503,5.812,.1,.153,.204,.308,.305,.463,1.989-3.083,4.508-6.275,11.192-6.275h1.293l-3.146-3.146c-.195-.195-.195-.512,0-.707s.512-.195,.707,0l3.194,3.194c.309,.309,.453,.717,.445,1.124,.007,.449-.219,.834-.445,1.061l-3.188,3.321c-.098,.102-.229,.153-.36,.153-.125,0-.249-.046-.347-.14-.199-.19-.205-.508-.014-.707l3.027-3.153h-1.166c-6.674,0-8.688,3.184-10.822,6.555Zm12.877,4.927l-3.194-3.328c-.19-.198-.507-.206-.707-.014-.199,.19-.205,.508-.014,.707l3.027,3.153h-1.166c-5.142,0-7.401-1.929-8.935-3.815-.175-.214-.49-.246-.703-.072-.214,.174-.247,.488-.072,.703,1.582,1.948,4.116,4.185,9.71,4.185h1.293l-3.146,3.146c-.195,.195-.195,.512,0,.707,.098,.098,.226,.146,.354,.146s.256-.049,.354-.146l3.194-3.194c.31-.31,.454-.719,.445-1.126,0-.37-.215-.828-.439-1.052Z"/>
</svg>
