<svg xmlns="http://www.w3.org/2000/svg" id="Layer_1" data-name="Layer 1" viewBox="0 0 52.04 56.45"><path d="M46.57,28.61l4.03-6.4-4.03-6.4h-20.14v12.8h20.14ZM28.58,53.06h-11.28v2.07h16.91v-2.07h-5.64ZM38.79,11.02l3.68-3.2-3.68-3.2h-12.37v6.39h12.37ZM27.92,3.31v-1.99h-4.32v50.42h4.32v-21.8h-2.16c-.36,0-.66-.3-.66-.66v-14.12c0-.37.3-.66.66-.66h2.16v-2.14h-2.16c-.36,0-.66-.3-.66-.66V3.97c0-.36.3-.66.66-.66h2.16ZM29.24,12.35v2.14h17.68c.26,0,.48.14.59.36l4.42,7.02c.14.22.13.5,0,.71l-4.44,7.05c-.12.2-.34.31-.56.31h0s-17.68,0-17.68,0v21.8h5.63c.37,0,.66.3.66.66v3.39c0,.37-.3.66-.66.66h-18.23c-.36,0-.66-.3-.66-.66v-3.39c0-.37.3-.66.66-.66h5.63v-31.17H5.11c-.18,0-.36-.08-.49-.22L.17,15.39c-.23-.25-.23-.63,0-.88l4.41-4.92c.12-.16.31-.27.53-.27h17.17V.66c0-.36.29-.66.66-.66h5.65c.37,0,.66.3.66.66v2.65h9.79c.18,0,.35.08.47.2l4.41,3.83c.31.27.3.74,0,1l-4.44,3.85c-.12.11-.28.16-.43.16h0s-9.79,0-9.79,0ZM1.54,14.94l3.85,4.3h16.88v-8.6H5.4l-3.85,4.3Z"></path></svg>